<svg width="48" height="48" viewBox="0 0 12.7 12.7" version="1.1" id="svg5" xmlns="http://www.w3.org/2000/svg"><g id="layer1"><g style="clip-rule:evenodd;fill-rule:evenodd;stroke-linejoin:round;stroke-miterlimit:1.41421" id="g72" transform="matrix(.013 0 0 .013 1.949 3.039)"><circle cx="403.07" cy="185.023" r="365.755" stroke-width="10" id="circle92-7" style="clip-rule:evenodd;fill-rule:evenodd;stroke:#fff;stroke-width:230.854px;stroke-linejoin:round;stroke-miterlimit:1.41421;stroke-dasharray:none;stroke-opacity:.792541"/><circle cx="404.707" cy="189.931" r="365.755" stroke-width="98.853" id="circle92-6" style="clip-rule:evenodd;fill:#fff;fill-rule:evenodd;stroke-linejoin:round;stroke-miterlimit:1.41421"/><path style="fill:#3c4b5a;stroke-width:1.15661px" d="M2.184-26.867v161.925l300.719 294.935 133.01-5.783h92.528l283.37-289.152V-26.867h-11.567L412.78 366.38 13.75-26.867Z" id="path2"/><path d="M267.048 424.21h116.817v-75.18L2.185-26.866H71.58l341.2 335.417L742.413-26.867h69.396L441.696 349.031v98.309c0 5.786-5.783 11.569-11.566 11.569H267.048c-13.88 0-16.193-11.566-16.193-17.35 0-5.783 2.314-17.349 16.193-17.349z" style="fill:#b12f35;stroke-width:1.15661px" id="path35"/><g fill="none" stroke="#000" stroke-linecap="round" id="g94" transform="matrix(9.88526 0 0 9.88526 -237.053 -226.032)" stroke-width="10"><path d="M35 72 5 102" id="path90-7" style="clip-rule:evenodd;fill-rule:evenodd;stroke:#fff;stroke-linejoin:round;stroke-miterlimit:1.41421;stroke-opacity:.792541;stroke-width:23.3534px;stroke-dasharray:none"/><path d="M35 72 5 102" id="path90" style="stroke:#000;stroke-opacity:1"/><circle cx="65" cy="42" r="37" id="circle92"/></g></g></g></svg>